<?xml version="1.0" encoding="UTF-8"?>
<svg version="1.1" xmlns="http://www.w3.org/2000/svg" width="2048" height="2048">
<path d="M0 0 C675.84 0 1351.68 0 2048 0 C2048 675.84 2048 1351.68 2048 2048 C1372.16 2048 696.32 2048 0 2048 C0 1372.16 0 696.32 0 0 Z " fill="#FEFEFE" transform="translate(0,0)"/>
<path d="M0 0 C3.67973931 1.10483488 6.44071108 2.85894231 9.5234375 5.0703125 C16.27149984 9.742582 23.17049084 14.12464792 30.1484375 18.4453125 C37.41898531 22.96040975 44.62925499 27.53152348 51.72119141 32.32177734 C57.21135347 36.01879999 62.8023125 39.54621828 68.40625 43.06762695 C75.11334865 47.2841439 81.79109747 51.54512818 88.4609375 55.8203125 C96.51384063 60.98137399 104.57493687 66.12903217 112.6484375 71.2578125 C119.7526543 75.77167398 126.8333613 80.31926203 133.89086914 84.90576172 C139.09269935 88.27968795 144.33482015 91.58626883 149.5859375 94.8828125 C156.20800644 99.04508023 162.76538602 103.29432882 169.2734375 107.6328125 C170.05001709 108.15029053 170.82659668 108.66776855 171.62670898 109.20092773 C177.01306152 112.80993652 177.01306152 112.80993652 178.1484375 113.9453125 C178.29031373 116.28264223 178.36745802 118.59236678 178.40327454 120.9322052 C178.41824028 121.67188292 178.43320602 122.41156063 178.44862527 123.17365283 C178.49740004 125.67144579 178.53854874 128.16930111 178.5793457 130.66723633 C178.61178193 132.4508493 178.64438365 134.23445927 178.67713928 136.01806641 C178.96609441 152.33963333 179.13308963 168.66291116 179.26681232 184.98640919 C179.35883148 195.96221855 179.4884195 206.93495052 179.7121582 217.90893555 C179.90727696 227.48065441 180.03153189 237.05021566 180.07087773 246.6238901 C180.09403528 251.69057194 180.15155461 256.75140374 180.2936039 261.8162632 C181.12174249 292.58806193 181.12174249 292.58806193 176.22838974 299.75905991 C171.63925902 304.02718098 166.61473581 306.19512928 160.69193077 308.03532982 C156.52398498 309.52649102 153.07334967 311.99587073 149.4609375 314.5078125 C148.0674271 315.42281838 146.67186903 316.33472056 145.2734375 317.2421875 C144.59023437 317.69013672 143.90703125 318.13808594 143.203125 318.59960938 C139.79662063 320.83067545 136.37920804 323.04483043 132.9609375 325.2578125 C132.27016113 325.70535889 131.57938477 326.15290527 130.86767578 326.61401367 C124.10997454 330.98479226 117.31409262 335.29499784 110.51953125 339.6081543 C104.3076654 343.55680307 98.12531207 347.54799159 91.9609375 351.5703125 C82.41823486 357.79409997 72.79362598 363.88198803 63.1484375 369.9453125 C52.60708832 376.57977556 42.0852125 383.24443976 31.5859375 389.9453125 C30.52842285 390.61844482 29.4709082 391.29157715 28.38134766 391.98510742 C23.44457745 395.14032097 18.54615846 398.33031778 13.73046875 401.66796875 C12.49695679 402.5177832 12.49695679 402.5177832 11.23852539 403.38476562 C9.72194164 404.43664343 8.21394596 405.50105694 6.71655273 406.58007812 C1.91184359 409.90895983 1.91184359 409.90895983 -1.3125 410.0625 C-5.16313624 408.36822005 -8.67020954 406.24691377 -12.2265625 404.0078125 C-13.02457275 403.51273193 -13.82258301 403.01765137 -14.64477539 402.50756836 C-20.20768248 399.03538857 -25.68190523 395.44196924 -31.1171875 391.77416992 C-35.93159916 388.53239037 -40.81242328 385.40853946 -45.7265625 382.3203125 C-53.1649904 377.6455332 -60.57900977 372.93453995 -67.9765625 368.1953125 C-69.55594604 367.18392212 -69.55594604 367.18392212 -71.16723633 366.15209961 C-76.50021722 362.73603154 -81.83105784 359.31665242 -87.16015625 355.89453125 C-97.5595437 349.22148291 -107.98408173 342.59619426 -118.4765625 336.0703125 C-125.41240733 331.75623805 -132.28303522 327.38012786 -139.04443359 322.7980957 C-147.74901038 316.93910664 -156.71948852 311.48366269 -165.63769531 305.95825195 C-166.69827148 305.29398193 -167.75884766 304.62971191 -168.8515625 303.9453125 C-170.1762824 303.29556552 -170.1762824 303.29556552 -171.52776432 302.63269234 C-179.23714465 298.51182372 -179.23714465 298.51182372 -180.85366249 294.39037228 C-181.20719048 291.25689486 -181.21396852 288.28661058 -181.1003418 285.13500977 C-181.10194809 283.96355911 -181.10355438 282.79210846 -181.10520935 281.5851593 C-181.09756405 277.72504006 -181.01211267 273.87081279 -180.92578125 270.01171875 C-180.90525689 267.33119313 -180.88906211 264.65099093 -180.87861633 261.97044373 C-180.84449672 255.64437551 -180.75433527 249.32041149 -180.64377195 242.99526781 C-180.520593 235.79118781 -180.46028469 228.58700444 -180.40512216 221.38213265 C-180.29030517 206.5687856 -180.09696842 191.75708578 -179.8515625 176.9453125 C-176.33364588 178.31380939 -173.26005142 179.8135915 -170.078125 181.8515625 C-169.17763428 182.42608154 -168.27714355 183.00060059 -167.34936523 183.5925293 C-166.40134033 184.20394775 -165.45331543 184.81536621 -164.4765625 185.4453125 C-163.50082275 186.07026611 -162.52508301 186.69521973 -161.51977539 187.33911133 C-155.13805086 191.43808759 -148.79312319 195.5897619 -142.50830078 199.8359375 C-139.34237465 201.97324018 -136.13399411 203.99276293 -132.8515625 205.9453125 C-132.87276374 205.31400106 -132.89396498 204.68268963 -132.91580868 204.03224754 C-133.42549818 188.61488245 -133.80513967 173.20047376 -134.04324245 157.77675438 C-134.16148025 150.31715396 -134.32235681 142.86319903 -134.58666992 135.40722656 C-134.81716762 128.90200263 -134.96456588 122.40086438 -135.01559788 115.89167082 C-135.04541614 112.44763553 -135.11441788 109.0152755 -135.28335381 105.57502365 C-136.19596696 84.67575136 -136.19596696 84.67575136 -130.607481 78.44220352 C-125.09303209 74.01928276 -119.04852631 70.99214803 -112.59007645 68.18881226 C-108.85036961 66.49069254 -105.60690477 64.3763584 -102.20703125 62.078125 C-101.16224609 61.40136719 -100.11746094 60.72460938 -99.04101562 60.02734375 C-96.95712868 58.66881758 -94.87383724 57.30937767 -92.79101562 55.94921875 C-91.77330078 55.29050781 -90.75558594 54.63179687 -89.70703125 53.953125 C-88.81653076 53.37191895 -87.92603027 52.79071289 -87.00854492 52.19189453 C-84.8515625 50.9453125 -84.8515625 50.9453125 -82.8515625 50.9453125 C-82.8515625 112.6553125 -82.8515625 174.3653125 -82.8515625 237.9453125 C-74.24056815 233.0247443 -65.79032844 228.12288304 -57.4765625 222.7578125 C-54.76209729 221.01606238 -52.04754068 219.2748228 -49.32519531 217.54541016 C-47.73688709 216.51799483 -46.16630485 215.46233331 -44.62011719 214.37255859 C-41.47196017 212.20679989 -39.6590643 210.96788561 -35.77734375 210.859375 C-32.15558262 212.20363347 -29.16485864 214.09887699 -26.0390625 216.3203125 C-24.70397785 217.23952119 -23.36800708 218.15744389 -22.03125 219.07421875 C-21.34256836 219.55004395 -20.65388672 220.02586914 -19.94433594 220.51611328 C-16.55916185 222.82792022 -13.11250686 225.04196573 -9.6640625 227.2578125 C-8.2224835 228.18723211 -6.78108076 229.11692516 -5.33984375 230.046875 C-4.60588379 230.5202832 -3.87192383 230.99369141 -3.11572266 231.48144531 C-0.8096615 232.97240312 1.49231223 234.46946728 3.79296875 235.96875 C4.58711182 236.48606689 5.38125488 237.00338379 6.19946289 237.53637695 C7.83346338 238.60154784 9.46676371 239.66779356 11.09936523 240.73510742 C15.44774594 243.56991473 19.81338348 246.37212474 24.21582031 249.12245178 C26.54201171 250.5759787 28.8635935 252.03679476 31.18530273 253.49746704 C32.87721146 254.55701975 34.57626915 255.605129 36.27539062 256.65307617 C37.81356445 257.62144409 37.81356445 257.62144409 39.3828125 258.609375 C40.30288086 259.18123535 41.22294922 259.7530957 42.17089844 260.34228516 C43.14978027 261.13578369 43.14978027 261.13578369 44.1484375 261.9453125 C44.1484375 262.9353125 44.1484375 263.9253125 44.1484375 264.9453125 C42.32348633 266.54321289 42.32348633 266.54321289 39.79296875 268.23046875 C38.41939209 269.15110107 38.41939209 269.15110107 37.01806641 270.09033203 C32.65651164 272.90972059 28.26774335 275.67517368 23.8359375 278.3828125 C16.39394284 282.91129979 16.39394284 282.91129979 9.07421875 287.6328125 C8.19020386 288.21204468 8.19020386 288.21204468 7.28833008 288.80297852 C5.76507283 289.80601064 4.25311965 290.82615239 2.7421875 291.84765625 C0.1484375 292.9453125 0.1484375 292.9453125 -2.234375 292.41796875 C-5.62404007 290.51064975 -8.94403957 288.5316922 -12.2265625 286.4453125 C-12.93498291 285.99881348 -13.64340332 285.55231445 -14.37329102 285.09228516 C-19.50579326 281.84126236 -24.56625285 278.49138637 -29.60473633 275.09716797 C-35.4788578 271.15627339 -41.44515648 267.36556797 -47.4140625 263.5703125 C-57.14181288 257.37734863 -66.76798468 251.04618413 -76.3515625 244.6328125 C-88.82902264 236.28088032 -88.82902264 236.28088032 -101.41322327 228.09098816 C-107.58040152 224.13128734 -113.71831088 220.12711725 -119.85546875 216.12109375 C-120.91608521 215.4290686 -121.97670166 214.73704346 -123.06945801 214.02404785 C-125.66364128 212.33136336 -128.25767242 210.63844624 -130.8515625 208.9453125 C-131.21008044 216.4120454 -131.45087064 223.87513127 -131.54846668 231.34968853 C-131.59738024 234.82359117 -131.68409282 238.28725127 -131.86303711 241.75708008 C-133.14091841 256.90303685 -133.14091841 256.90303685 -127.88238525 270.41601562 C-122.92557789 274.63903805 -117.33683888 277.33437575 -111.36898804 279.85061646 C-108.17093171 281.24128306 -105.4744774 282.94228959 -102.5859375 284.890625 C-101.74893311 285.42349121 -100.91192871 285.95635742 -100.04956055 286.50537109 C-99.24172119 287.02180176 -98.43388184 287.53823242 -97.6015625 288.0703125 C-96.68866455 288.65248535 -95.7757666 289.2346582 -94.83520508 289.83447266 C-88.71551384 293.74161486 -82.61416659 297.67645485 -76.52319336 301.62817383 C-64.08061419 309.69553261 -51.57985932 317.67426232 -39.0625 325.625 C-38.14227051 326.20975098 -37.22204102 326.79450195 -36.27392578 327.39697266 C-34.4661945 328.54435432 -32.6572938 329.68989583 -30.84716797 330.83349609 C-26.25752127 333.74119648 -21.71109424 336.69750647 -17.2109375 339.7421875 C-16.29997314 340.35296143 -15.38900879 340.96373535 -14.45043945 341.59301758 C-12.71909445 342.7573594 -10.99574417 343.93370869 -9.28198242 345.1237793 C-8.50959229 345.64109619 -7.73720215 346.15841309 -6.94140625 346.69140625 C-6.26972412 347.15216553 -5.59804199 347.6129248 -4.90600586 348.08764648 C-2.12725283 349.24768919 -0.6953253 348.85404196 2.1484375 347.9453125 C4.43646771 346.78693525 4.43646771 346.78693525 6.67578125 345.27734375 C7.53880859 344.72111328 8.40183594 344.16488281 9.29101562 343.59179688 C10.67450195 342.68397461 10.67450195 342.68397461 12.0859375 341.7578125 C14.07408622 340.47245123 16.06237124 339.18730077 18.05078125 337.90234375 C19.0651123 337.24314941 20.07944336 336.58395508 21.12451172 335.90478516 C25.77999429 332.88808056 30.46457328 329.91767562 35.1484375 326.9453125 C36.98193192 325.77889901 38.81526477 324.61223151 40.6484375 323.4453125 C73.64843751 302.44531249 73.64843751 302.44531249 76.40039062 300.6940918 C78.22724037 299.5315363 80.05406344 298.36893888 81.88085938 297.20629883 C86.56316985 294.22638086 91.24599161 291.24727129 95.9296875 288.26953125 C96.88004883 287.66512207 97.83041016 287.06071289 98.80957031 286.43798828 C100.67838428 285.24964889 102.54751663 284.06181004 104.41699219 282.87451172 C108.48095889 280.29110619 112.53826574 277.69941025 116.5703125 275.06640625 C117.22580078 274.63948486 117.88128906 274.21256348 118.55664062 273.77270508 C120.26163926 272.65961941 121.96301299 271.54098652 123.6640625 270.421875 C126.1484375 268.9453125 126.1484375 268.9453125 128.1484375 268.9453125 C128.1484375 226.7053125 128.1484375 184.4653125 128.1484375 140.9453125 C126.4984375 140.2853125 124.8484375 139.6253125 123.1484375 138.9453125 C121.33764328 137.88287758 119.55252243 136.77599603 117.7890625 135.63671875 C116.76449951 134.97776611 115.73993652 134.31881348 114.68432617 133.63989258 C113.05781128 132.58451294 113.05781128 132.58451294 111.3984375 131.5078125 C110.26496738 130.77656848 109.13125757 130.04569588 107.99731445 129.31518555 C104.71126344 127.19666219 101.42983349 125.07103909 98.1484375 122.9453125 C96.57447094 121.92929671 95.00028565 120.91361961 93.42578125 119.8984375 C87.78920371 116.26117011 82.1634292 112.60742843 76.54296875 108.9453125 C66.1455408 102.17282033 55.71425773 95.45586816 45.25854492 88.77368164 C38.98312476 84.76223136 32.71418807 80.74124592 26.4609375 76.6953125 C25.79682861 76.26589355 25.13271973 75.83647461 24.44848633 75.39404297 C20.66092144 72.9400443 16.90443873 70.44931332 13.1484375 67.9453125 C12.8184375 86.7553125 12.4884375 105.5653125 12.1484375 124.9453125 C13.7984375 125.6053125 15.4484375 126.2653125 17.1484375 126.9453125 C18.33856973 127.62261439 19.50839312 128.33716218 20.65234375 129.08984375 C21.30009766 129.51265625 21.94785156 129.93546875 22.61523438 130.37109375 C23.65260742 131.05751953 23.65260742 131.05751953 24.7109375 131.7578125 C26.23306404 132.75391981 27.75519985 133.75001297 29.27734375 134.74609375 C30.07285645 135.26896973 30.86836914 135.7918457 31.68798828 136.33056641 C35.83192814 139.05015544 39.99127825 141.74599424 44.1484375 144.4453125 C45.83595691 145.54293891 47.52345701 146.64059501 49.2109375 147.73828125 C53.13336387 150.28801185 57.06157136 152.82864142 60.9921875 155.36572266 C82.37144069 169.16831569 82.37144069 169.16831569 84.1484375 170.9453125 C84.24230131 172.8171219 84.26587554 174.6924931 84.26196289 176.56665039 C84.26188736 177.76781998 84.26181183 178.96898956 84.26173401 180.20655823 C84.25657272 181.5138237 84.25141144 182.82108917 84.24609375 184.16796875 C84.24422948 185.51175382 84.24280562 186.85553957 84.24180603 188.19932556 C84.23798152 191.74213527 84.22815182 195.2849042 84.21710205 198.82769775 C84.20688649 202.44046477 84.2023081 206.05323834 84.19726562 209.66601562 C84.18652948 216.7591313 84.16945386 223.85221924 84.1484375 230.9453125 C74.63813845 225.72362333 74.63813845 225.72362333 70.703125 223.140625 C69.94829834 222.64747803 69.19347168 222.15433105 68.41577148 221.64624023 C67.62630127 221.12618408 66.83683105 220.60612793 66.0234375 220.0703125 C65.17015869 219.512229 64.31687988 218.95414551 63.43774414 218.37915039 C60.67290202 216.57051305 57.91064683 214.75796759 55.1484375 212.9453125 C51.29592979 210.4219364 47.44159509 207.90137285 43.5859375 205.3828125 C42.12837036 204.43051758 42.12837036 204.43051758 40.64135742 203.45898438 C33.9864057 199.12008294 27.2854175 194.86147988 20.55566406 190.63989258 C12.64502088 185.6607341 4.83831866 180.52510385 -2.97607422 175.39672852 C-12.89169217 168.89788983 -22.88149867 162.52013142 -32.90405273 156.18774414 C-34.56636447 155.12725719 -36.21094311 154.03905876 -37.8515625 152.9453125 C-38.25143242 150.69130516 -38.25143242 150.69130516 -38.28634644 147.82333374 C-38.30636719 146.73830566 -38.32638794 145.65327759 -38.34701538 144.53536987 C-38.35351105 143.33953278 -38.36000671 142.14369568 -38.36669922 140.91162109 C-38.39386017 139.02851227 -38.39386017 139.02851227 -38.42156982 137.10736084 C-38.469537 133.65667851 -38.49706939 130.20613805 -38.51799154 126.75519514 C-38.53122449 124.59790898 -38.54748097 122.44066452 -38.56451797 120.2834053 C-38.61631504 113.53019501 -38.65443123 106.77708772 -38.6749438 100.02370965 C-38.69894388 92.2348528 -38.76903085 84.44820773 -38.87894619 76.66010034 C-38.96101444 70.63702847 -39.00059624 64.61458541 -39.00854695 58.59096396 C-39.01428661 54.99484769 -39.03794634 51.40101008 -39.10628891 47.8054924 C-39.18135903 43.78739868 -39.16834634 39.77411463 -39.14794922 35.75537109 C-39.18278412 34.57167938 -39.21761902 33.38798767 -39.25350952 32.16842651 C-39.16575361 27.19831709 -39.02996556 24.17534392 -35.50242996 20.49325943 C-32.69940555 18.42269473 -29.88601814 16.65482814 -26.8515625 14.9453125 C-25.08042996 13.8476316 -23.31063856 12.74777976 -21.54296875 11.64453125 C-19.83653921 10.6351853 -18.12691793 9.63121486 -16.4140625 8.6328125 C-14.68501021 7.61790616 -12.95710111 6.60104912 -11.23046875 5.58203125 C-10.4835376 5.14592529 -9.73660645 4.70981934 -8.96704102 4.26049805 C-6.79725602 2.96819997 -6.79725602 2.96819997 -4.75610352 1.27709961 C-2.8515625 -0.0546875 -2.8515625 -0.0546875 0 0 Z " fill="#232323" transform="translate(1025.8515625,745.0546875)"/>
<path d="M0 0 C5.919375 -0.0825 11.83875 -0.165 17.9375 -0.25 C19.78722412 -0.28641602 21.63694824 -0.32283203 23.54272461 -0.36035156 C33.49449657 -0.47498471 41.06095546 -0.20344216 48.9375 6.5 C53.94393518 12.56840628 53.59196063 18.35225062 53 26 C51.36964171 31.27468858 47.73232782 35.17898128 43 38 C39.76953125 38.66796875 39.76953125 38.66796875 37 39 C37.72445312 39.97839844 38.44890625 40.95679688 39.1953125 41.96484375 C54 62.01397731 54 62.01397731 54 65 C50.20513008 65.54040869 46.78045741 65.71266731 43 65 C39.8945628 62.57460684 38.0421586 59.58706117 36 56.25 C35.45472656 55.425 34.90945313 54.6 34.34765625 53.75 C33.33408561 52.21353595 32.3359732 50.66667067 31.359375 49.10644531 C30.01101324 46.94867975 30.01101324 46.94867975 28.328125 44.85449219 C27 43 27 43 27 41 C21.39 41 15.78 41 10 41 C10 48.92 10 56.84 10 65 C6.7 65 3.4 65 0 65 C0 43.55 0 22.1 0 0 Z " fill="#222122" transform="translate(833,1339)"/>
<path d="M0 0 C9 0 9 0 12.3359375 3.0078125 C13.37735298 4.35878819 14.38920144 5.73292144 15.375 7.125 C15.92534912 7.85130615 16.47569824 8.5776123 17.04272461 9.32592773 C18.17323789 10.81976796 19.29268099 12.32205065 20.40087891 13.83251953 C22.71511525 16.96928141 25.13889019 20.00938115 27.5625 23.0625 C29.356875 25.351875 31.15125 27.64125 33 30 C36.96 34.95 40.92 39.9 45 45 C45.33 30.15 45.66 15.3 46 0 C49.3 0 52.6 0 56 0 C56 21.12 56 42.24 56 64 C47 64 47 64 44.92773438 62.70581055 C44.48751953 62.10551025 44.04730469 61.50520996 43.59375 60.88671875 C43.08247559 60.22140137 42.57120117 59.55608398 42.04443359 58.87060547 C41.53477051 58.15018066 41.02510742 57.42975586 40.5 56.6875 C39.37785617 55.2042364 38.25545969 53.72116391 37.1328125 52.23828125 C36.59688477 51.50947754 36.06095703 50.78067383 35.50878906 50.02978516 C33.55445636 47.40060682 31.47672079 44.88727198 29.375 42.375 C23.09433393 34.71026122 16.94560282 26.92747043 11 19 C10.67 33.85 10.34 48.7 10 64 C6.7 64 3.4 64 0 64 C0 42.88 0 21.76 0 0 Z " fill="#202020" transform="translate(1030,1339)"/>
<path d="M0 0 C16.17 0 32.34 0 49 0 C49 2.97 49 5.94 49 9 C36.13 9 23.26 9 10 9 C10 14.94 10 20.88 10 27 C21.55 27 33.1 27 45 27 C45 29.97 45 32.94 45 36 C33.45 36 21.9 36 10 36 C10 42.27 10 48.54 10 55 C23.2 55 36.4 55 50 55 C50 58.3 50 61.6 50 65 C33.5 65 17 65 0 65 C0 43.55 0 22.1 0 0 Z " fill="#2A2929" transform="translate(933,1339)"/>
<path d="M0 0 C16.17 0 32.34 0 49 0 C49 2.97 49 5.94 49 9 C36.46 9 23.92 9 11 9 C11 14.94 11 20.88 11 27 C22.22 27 33.44 27 45 27 C45 29.97 45 32.94 45 36 C33.45 36 21.9 36 10 36 C10 42.6 10 49.2 10 56 C23.2 56 36.4 56 50 56 C50 58.97 50 61.94 50 65 C33.5 65 17 65 0 65 C0 43.55 0 22.1 0 0 Z " fill="#252324" transform="translate(1136,1339)"/>
<path d="M0 0 C3.3 0 6.6 0 10 0 C10 9.24 10 18.48 10 28 C21.55 28 33.1 28 45 28 C45 18.76 45 9.52 45 0 C48.3 0 51.6 0 55 0 C55.02312684 8.32728947 55.04091683 16.65456563 55.05181217 24.98187923 C55.05704026 28.84820118 55.06413654 32.71450121 55.07543945 36.58081055 C55.086271 40.30903401 55.0922774 44.03723634 55.09487724 47.76547432 C55.09673101 49.19089656 55.10035071 50.61631759 55.10573006 52.04173088 C55.11294393 54.03163408 55.11340808 56.02155834 55.11352539 58.01147461 C55.115746 59.14620712 55.11796661 60.28093964 55.12025452 61.45005798 C55 64 55 64 54 65 C50.7 65 47.4 65 44 65 C44 55.76 44 46.52 44 37 C32.78 37 21.56 37 10 37 C10 45.91 10 54.82 10 64 C6.7 64 3.4 64 0 64 C0 42.88 0 21.76 0 0 Z " fill="#252526" transform="translate(669,1339)"/>
<path d="M0 0 C2.81267676 1.42723938 5.30814297 3.05104702 7.83984375 4.93359375 C6.71532648 7.90553225 5.61690584 10.26800062 3.83984375 12.93359375 C3.17984375 12.66546875 2.51984375 12.39734375 1.83984375 12.12109375 C0.84984375 11.72921875 -0.14015625 11.33734375 -1.16015625 10.93359375 C-2.89265625 10.12921875 -2.89265625 10.12921875 -4.66015625 9.30859375 C-10.19763214 7.24789184 -16.36043512 6.95930197 -22.16015625 7.93359375 C-25.37150952 10.40345515 -26.06149881 11.38111209 -26.78515625 15.43359375 C-26.49032929 19.04974065 -26.49032929 19.04974065 -23.84765625 21.18359375 C-21.05699035 22.73830039 -18.2511416 23.48362026 -15.16015625 24.24609375 C-10.38060201 25.44589955 -6.13011437 27.15043919 -1.72265625 29.30859375 C-0.56894531 29.87320312 0.58476563 30.4378125 1.7734375 31.01953125 C5.5488189 33.37613875 7.85450392 35.96291408 9.83984375 39.93359375 C10.39697507 45.8906132 10.36164561 50.88567774 6.83984375 55.93359375 C0.51202724 62.26141026 -5.628231 64.10199359 -14.47265625 64.37109375 C-25.23000843 64.12515031 -33.04758644 60.90714946 -41.16015625 53.93359375 C-39.74224062 50.99912489 -38.17683018 48.50026966 -36.16015625 45.93359375 C-33.91310774 47.02275138 -31.75441318 48.1727034 -29.6015625 49.44140625 C-22.0564256 53.67978709 -15.79071157 55.1383961 -7.16015625 53.93359375 C-4.37898176 52.98302353 -4.37898176 52.98302353 -2.16015625 51.93359375 C-1.88267383 50.52205276 -1.63922109 49.10379576 -1.41015625 47.68359375 C-1.2709375 46.8946875 -1.13171875 46.10578125 -0.98828125 45.29296875 C-0.97636129 42.85295232 -0.97636129 42.85295232 -2.50390625 40.8515625 C-6.45674898 37.99737753 -10.77020208 36.8790953 -15.41015625 35.49609375 C-31.00851802 30.83413612 -31.00851802 30.83413612 -36.1328125 24.4921875 C-38.04669744 19.72566797 -37.76238502 14.97041619 -37.16015625 9.93359375 C-34.81524247 4.77478343 -30.97815165 1.7394333 -26.16015625 -1.06640625 C-18.40676656 -3.65086948 -7.56634589 -3.035252 0 0 Z " fill="#222121" transform="translate(1268.16015625,1340.06640625)"/>
<path d="M0 0 C17.82 0 35.64 0 54 0 C54 2.97 54 5.94 54 9 C46.74 9 39.48 9 32 9 C32.00523682 10.66087646 32.01047363 12.32175293 32.01586914 14.03295898 C32.03391058 20.16983506 32.04542886 26.30670877 32.05493164 32.44360352 C32.05997383 35.10441481 32.06680736 37.76522332 32.07543945 40.42602539 C32.08751009 44.24105516 32.09322929 48.05604844 32.09765625 51.87109375 C32.10281754 53.06899033 32.10797882 54.2668869 32.11329651 55.50108337 C32.11337204 56.6021492 32.11344757 57.70321503 32.11352539 58.83764648 C32.115746 59.81249496 32.11796661 60.78734344 32.12025452 61.79173279 C32 64 32 64 31 65 C27.7 65 24.4 65 21 65 C21 46.19 21 27.38 21 8 C14.07 8 7.14 8 0 8 C0 5.36 0 2.72 0 0 Z " fill="#29292A" transform="translate(1315,1339)"/>
<path d="M0 0 C4.06290008 -0.08095816 8.12418567 -0.14048645 12.1875 -0.1875 C13.91323242 -0.22520508 13.91323242 -0.22520508 15.67382812 -0.26367188 C17.34155273 -0.27817383 17.34155273 -0.27817383 19.04296875 -0.29296875 C20.06414795 -0.3086792 21.08532715 -0.32438965 22.13745117 -0.34057617 C26.14964039 0.13678024 28.65083358 1.95491266 31.78515625 4.3828125 C34.28583308 7.71168777 33.5544179 12.06237284 33 16 C30.87578982 19.99351514 28.33757267 21.67599305 24.19116211 23.39135742 C19.73703611 24.62858707 15.14621922 24.30290147 10.5625 24.1875 C5.3340625 24.0946875 5.3340625 24.0946875 0 24 C0 16.08 0 8.16 0 0 Z " fill="#F9F9F9" transform="translate(843,1348)"/>
<path d="M0 0 C3.3 0 6.6 0 10 0 C10 21.12 10 42.24 10 64 C6.7 64 3.4 64 0 64 C0 42.88 0 21.76 0 0 Z " fill="#252525" transform="translate(774,1339)"/>
</svg>
